<?xml version="1.0" standalone="no"?>
<!DOCTYPE svg PUBLIC "-//W3C//DTD SVG 20010904//EN"
 "http://www.w3.org/TR/2001/REC-SVG-20010904/DTD/svg10.dtd">
<svg version="1.0" xmlns="http://www.w3.org/2000/svg"
 width="280.000000pt" height="280.000000pt" viewBox="0 0 280.000000 280.000000"
 preserveAspectRatio="xMidYMid meet">
<metadata>
Created by potrace 1.14, written by Peter Selinger 2001-2017
</metadata>
<g transform="translate(0.000000,280.000000) scale(0.100000,-0.100000)"
fill="#000000" stroke="none">
<path d="M1927 2570 c-21 -26 -46 -56 -56 -67 -9 -10 -34 -40 -56 -68 -22 -27
-48 -57 -57 -66 -10 -9 -18 -20 -18 -24 0 -4 -8 -15 -18 -24 -9 -9 -55 -63
-102 -121 -46 -58 -87 -107 -90 -110 -6 -6 -99 -117 -115 -138 -5 -7 -17 -21
-26 -30 -8 -9 -52 -62 -96 -117 -44 -55 -89 -110 -99 -122 -11 -12 -26 -30
-34 -40 -104 -127 -149 -181 -172 -206 l-26 -29 22 -47 c32 -66 222 -444 327
-649 50 -96 122 -237 160 -313 l70 -139 214 0 c118 0 215 4 215 9 0 8 -66 138
-299 591 -67 129 -149 290 -183 356 l-62 122 59 73 c32 41 62 76 65 79 3 3 21
25 40 50 19 25 37 47 40 50 8 8 83 100 110 135 43 56 193 239 204 250 6 6 24
28 40 50 16 22 37 48 45 57 9 9 21 23 26 30 6 7 29 36 53 64 23 29 42 58 41
65 0 8 -41 96 -92 196 l-92 181 -38 -48z"/>
<path d="M2196 2009 c-22 -27 -51 -63 -65 -79 -14 -16 -36 -42 -48 -57 -12
-15 -31 -39 -43 -53 -12 -14 -30 -35 -41 -48 -10 -12 -18 -30 -16 -40 1 -9 67
-147 146 -307 78 -159 156 -325 173 -367 l31 -78 222 0 c122 0 224 3 227 6 3
3 -24 65 -61 137 -37 73 -159 313 -271 535 -112 221 -206 402 -209 402 -3 -1
-24 -23 -45 -51z"/>
<path d="M805 1214 c-10 -15 -27 -37 -39 -48 -12 -12 -37 -41 -56 -66 -19 -25
-37 -47 -41 -50 -3 -3 -38 -45 -79 -95 -40 -49 -75 -92 -79 -95 -3 -3 -24 -27
-45 -55 -22 -27 -47 -58 -55 -67 -9 -9 -21 -23 -26 -30 -20 -25 -100 -123
-105 -128 -3 -3 -23 -27 -45 -55 -22 -27 -47 -57 -56 -66 -9 -9 -21 -23 -25
-31 -11 -18 -79 -100 -111 -134 -13 -13 -23 -26 -23 -29 0 -3 114 -5 254 -5
l254 0 17 27 c10 14 28 36 40 47 13 12 83 93 155 181 72 88 146 178 165 200
89 107 115 140 115 148 0 10 -178 359 -189 370 -4 4 -16 -4 -26 -19z"/>
</g>
</svg>
